/* XPM */
static char * openvpn_off_xpm[] = {
"24 24 3 1",
" 	g None",
".	g #AEAEAE",
"+	g #2E2E2E",
"                        ",
"                        ",
"         ......         ",
"       ..........       ",
"     ..............     ",
"    ................    ",
"    ................    ",
"   ......      ......   ",
"   .....        .....   ",
"  .....   ++++   .....  ",
"  .....  ++++++  .....  ",
"  .....  ++++++  .....  ",
"  .....  ++++++  .....  ",
"  .....  ++++++  .....  ",
"  .....   ++++   .....  ",
"   .....   ++   .....   ",
"   ......  ++  ......   ",
"    ..... ++++ .....    ",
"    ....  ++++  ....    ",
"     ...  ++++  ...     ",
"          ++++          ",
"          ++++          ",
"                        ",
"                        "};
